<svg viewBox="0 0 18 19" fill="none" xmlns="http://www.w3.org/2000/svg"><path d="M1.533 3A.533.533 0 0 0 1 3.533v11.734a.533.533 0 0 0 1.067 0V3.533A.533.533 0 0 0 1.533 3Zm2.134 0a.533.533 0 0 0-.534.533v9.6a.533.533 0 1 0 1.067 0v-9.6A.533.533 0 0 0 3.667 3ZM5.8 3a.533.533 0 0 0-.533.533v9.6a.533.533 0 1 0 1.066 0v-9.6A.533.533 0 0 0 5.8 3Zm2.133 0a.533.533 0 0 0-.533.533v9.6a.533.533 0 1 0 1.067 0v-9.6A.533.533 0 0 0 7.933 3Zm2.134 0a.533.533 0 0 0-.534.533v9.6a.533.533 0 1 0 1.067 0v-9.6A.533.533 0 0 0 10.067 3ZM12.2 3a.533.533 0 0 0-.533.533v9.6a.533.533 0 1 0 1.066 0v-9.6A.533.533 0 0 0 12.2 3Zm2.133 0a.533.533 0 0 0-.533.533v9.6a.533.533 0 1 0 1.067 0v-9.6A.533.533 0 0 0 14.333 3Zm2.134 0a.533.533 0 0 0-.534.533v11.734a.533.533 0 0 0 1.067 0V3.533A.533.533 0 0 0 16.467 3Z" fill="#000"/></svg>