<svg viewBox="0 0 16 20" fill="none" xmlns="http://www.w3.org/2000/svg"><path d="M6.8 8.2a.6.6 0 0 1 .6-.6h4.2a.6.6 0 1 1 0 1.2H7.4a.6.6 0 0 1-.6-.6Zm0 3.6a.6.6 0 0 1 .6-.6h4.2a.6.6 0 1 1 0 1.2H7.4a.6.6 0 0 1-.6-.6Zm0 3.6a.6.6 0 0 1 .6-.6h4.2a.6.6 0 1 1 0 1.2H7.4a.6.6 0 0 1-.6-.6ZM5.6 8.2a.9.9 0 1 1-1.8 0 .9.9 0 0 1 1.8 0Zm0 3.6a.9.9 0 1 1-1.8 0 .9.9 0 0 1 1.8 0Zm-.9 4.5a.9.9 0 1 0 0-1.8.9.9 0 0 0 0 1.8ZM4.502 1.6A1.8 1.8 0 0 1 6.2.4h3.6a1.8 1.8 0 0 1 1.698 1.2H13.4a1.8 1.8 0 0 1 1.8 1.8v14.4a1.8 1.8 0 0 1-1.8 1.8H2.6a1.8 1.8 0 0 1-1.8-1.8V3.4a1.8 1.8 0 0 1 1.8-1.8h1.902Zm1.698 0a.6.6 0 0 0 0 1.2h3.6a.6.6 0 1 0 0-1.2H6.2ZM4.502 2.8H2.6a.6.6 0 0 0-.6.6v14.4a.6.6 0 0 0 .6.6h10.8a.6.6 0 0 0 .6-.6V3.4a.6.6 0 0 0-.6-.6h-1.902A1.8 1.8 0 0 1 9.8 4H6.2a1.8 1.8 0 0 1-1.698-1.2Z" fill="#000"/></svg>