<svg viewBox="0 0 26 26" fill="none" xmlns="http://www.w3.org/2000/svg"><path d="m17.965 5.21 2.824 2.823-2.824-2.822Zm1.816-2.486-7.636 7.636a2.824 2.824 0 0 0-.773 1.443l-.705 3.53 3.53-.706a2.822 2.822 0 0 0 1.443-.772l7.636-7.636a2.472 2.472 0 0 0-3.495-3.495v0Z" stroke="#000" stroke-width="2.5" stroke-linecap="round" stroke-linejoin="round"/><path d="M21.333 18v4a2.666 2.666 0 0 1-2.666 2.667H4A2.667 2.667 0 0 1 1.333 22V7.333A2.667 2.667 0 0 1 4 4.667h4" stroke="#000" stroke-width="2.5" stroke-linecap="round" stroke-linejoin="round"/></svg>