<svg viewBox="0 0 24 24" fill="none" xmlns="http://www.w3.org/2000/svg"><g clip-path="url(#a)" fill="#000" stroke="#000" stroke-width=".2"><path d="M9.2 16a.4.4 0 1 0 0 .8h1.6a.4.4 0 1 0 0-.8H9.2Zm2.4-7.2H9.2a.4.4 0 1 0 0 .8h2.4a.4.4 0 1 0 0-.8Zm.8 3.2h.8a.4.4 0 1 0 0-.8h-.8a.4.4 0 1 0 0 .8Z"/><path d="M18 23.2H3.6c-.662 0-1.2-.538-1.2-1.2V4.4a.4.4 0 1 0-.8 0V22c0 1.103.897 2 2 2H18a.4.4 0 1 0 0-.8Z"/><path d="M22 4.8h-3.2c-.662 0-1.2-.538-1.2-1.2V2.4a.4.4 0 1 0-.8 0v1.2c0 1.103.897 2 2 2h2.8v13.2c0 .662-.538 1.2-1.2 1.2H6.8c-.662 0-1.2-.538-1.2-1.2V2c0-.662.538-1.2 1.2-1.2h10.235l3.082 3.083a.4.4 0 1 0 .566-.566l-3.2-3.2A.398.398 0 0 0 17.2 0H6.8c-1.103 0-2 .897-2 2v16.8c0 1.103.897 2 2 2h13.6c1.103 0 2-.897 2-2V5.2a.4.4 0 0 0-.4-.4Z"/><path d="M19.6 21.6H5.2c-.661 0-1.2-.538-1.2-1.2V2.8a.4.4 0 1 0-.8 0v17.6c0 1.103.897 2 2 2h14.4a.4.4 0 1 0 0-.8Z"/><path d="M14.4 14a.4.4 0 0 0-.4-.4H9.2a.4.4 0 1 0 0 .8H14a.4.4 0 0 0 .4-.4Zm-5.2-2h1.6a.4.4 0 1 0 0-.8H9.2a.4.4 0 1 0 0 .8ZM14 5.6H9.2a.4.4 0 1 0 0 .8H14a.4.4 0 1 0 0-.8Zm4 5.6h-3.2a.4.4 0 1 0 0 .8H18a.4.4 0 1 0 0-.8Zm-.8-2.4h-4a.4.4 0 1 0 0 .8h4a.4.4 0 1 0 0-.8Zm-4.8 8H18a.4.4 0 1 0 0-.8h-5.6a.4.4 0 1 0 0 .8Zm4.8-2.4a.4.4 0 1 0 0-.8h-1.6a.4.4 0 1 0 0 .8h1.6Z"/></g><defs><clipPath id="a"><path fill="#fff" d="M0 0h24v24H0z"/></clipPath></defs></svg>