<svg viewBox="0 0 18 18" fill="none" xmlns="http://www.w3.org/2000/svg"><path d="m8.127 14.52-.325.38.009.007.316-.387Zm.016-7.536.317.387-.317-.387Zm1.712 0-.325.38.009.007.316-.387Zm0 7.536-.316-.387-.01.007.326.38ZM8 5.096l-.337.37.01.007L8 5.096ZM8 3.32l.328.377L8 3.32Zm2 .016-.337.37.008.007.01.007.32-.384Zm.016 1.76.328.377.01-.008-.338-.369ZM16.5 9A7.5 7.5 0 0 1 9 16.5v1A8.5 8.5 0 0 0 17.5 9h-1ZM9 16.5A7.5 7.5 0 0 1 1.5 9h-1A8.5 8.5 0 0 0 9 17.5v-1ZM1.5 9A7.5 7.5 0 0 1 9 1.5v-1A8.5 8.5 0 0 0 .5 9h1ZM9 1.5A7.5 7.5 0 0 1 16.5 9h1A8.5 8.5 0 0 0 9 .5v1Zm.007 12.808c-.256 0-.432-.067-.563-.175l-.633.774c.338.277.748.401 1.196.401v-1Zm-.554-.168c-.085-.072-.162-.199-.162-.468h-1c0 .477.148.916.51 1.228l.652-.76Zm-.162-.468v-5.84h-1v5.84h1Zm0-5.84c0-.261.077-.386.169-.461l-.633-.774c-.378.309-.536.75-.536 1.235h1Zm.169-.461c.134-.11.306-.175.547-.175v-1c-.441 0-.845.127-1.18.401l.633.774Zm.547-.175c.242 0 .403.065.523.168l.65-.76c-.328-.281-.732-.408-1.173-.408v1Zm.532.175c.092.075.168.2.168.461h1c0-.485-.158-.926-.535-1.235l-.633.774Zm.168.461v5.84h1v-5.84h-1Zm0 5.84c0 .261-.076.386-.168.461l.633.774c.377-.309.535-.75.535-1.235h-1Zm-.177.468c-.12.103-.28.168-.523.168v1c.441 0 .845-.127 1.174-.408l-.651-.76Zm-.523-9.224c-.344 0-.55-.085-.68-.197l-.656.754c.362.315.827.443 1.336.443v-1Zm-.67-.19c-.129-.116-.206-.274-.206-.526h-1c0 .495.169.934.531 1.265l.674-.738ZM8.13 4.2c0-.252.077-.399.196-.503l-.656-.754c-.371.323-.54.763-.54 1.257h1Zm.196-.503c.13-.112.336-.197.68-.197v-1c-.509 0-.974.128-1.336.443l.656.754Zm.68-.197c.324 0 .524.085.655.205l.674-.738c-.359-.328-.82-.467-1.329-.467v1Zm.672.22c.131.11.204.25.204.48h1c0-.496-.183-.93-.564-1.248l-.64.768Zm.204.48c0 .252-.077.41-.205.527l.674.738c.363-.33.531-.77.531-1.265h-1Zm-.196.519c-.129.112-.335.197-.68.197v1c.51 0 .975-.128 1.336-.443l-.656-.754Z" fill="#000"/></svg>