<svg viewBox="0 0 18 16" fill="none" xmlns="http://www.w3.org/2000/svg"><g clip-path="url(#a)"><path d="M16.875 6.885H3.532L7.618 2.03a1.114 1.114 0 0 0 .13-1.235 1.12 1.12 0 0 0-.665-.546 1.138 1.138 0 0 0-1.2.354L.257 7.287a1.322 1.322 0 0 0-.1.171.14.14 0 0 1-.08.145 1.061 1.061 0 0 0 0 .802.14.14 0 0 0 .08.146c.029.058.063.114.1.167l5.625 6.685a1.126 1.126 0 0 0 .763.399 1.138 1.138 0 0 0 .825-.253 1.12 1.12 0 0 0 .403-.755 1.106 1.106 0 0 0-.255-.817L3.532 9.115h13.343c.298 0 .585-.117.796-.326a1.11 1.11 0 0 0 0-1.577 1.131 1.131 0 0 0-.796-.327Z" fill="#0C2A31"/></g><defs><clipPath id="a"><path fill="#fff" transform="translate(0 .2)" d="M0 0h18v15.6H0z"/></clipPath></defs></svg>