<svg viewBox="0 0 24 24" fill="none" xmlns="http://www.w3.org/2000/svg"><path d="M22.2 12.028c0-4.655-3.145-8.714-7.655-9.872a.802.802 0 0 0-.98.582.802.802 0 0 0 .582.98 8.572 8.572 0 0 1 6.44 8.31 8.577 8.577 0 0 1-5.137 7.861l.745-1.734a.81.81 0 0 0-.422-1.06.81.81 0 0 0-1.059.422l-1.453 3.385a.81.81 0 0 0 .422 1.059l3.384 1.453a.841.841 0 0 0 1.06-.422.81.81 0 0 0-.422-1.06l-1.472-.632a10.172 10.172 0 0 0 5.967-9.272ZM9.863 20.34a8.576 8.576 0 0 1-6.44-8.312 8.577 8.577 0 0 1 5.01-7.805l-.698 1.622c-.174.408.004.9.421 1.06.488.183.9-.038 1.06-.422l1.453-3.39c.14-.327.136-.82-.422-1.059L6.863.581a.81.81 0 0 0-1.06.422.81.81 0 0 0 .422 1.06l1.575.674A10.195 10.195 0 0 0 9.464 21.9c.544.142.886-.215.98-.58a.808.808 0 0 0-.581-.98Z" fill="#000"/><path d="M13.903 15.066c.413-.432.619-.975.619-1.622a2.24 2.24 0 0 0-.15-.82 1.927 1.927 0 0 0-.422-.657 2.383 2.383 0 0 0-.712-.469c-.155-.065-.464-.159-.938-.276v-2.69c.305.06.544.191.722.388.173.197.29.478.347.844l.966-.145c-.085-.59-.329-1.06-.737-1.397-.318-.267-.75-.427-1.293-.478v-.446h-.553v.446c-.62.06-1.088.234-1.402.51-.473.413-.708.952-.708 1.618 0 .375.08.708.244 1.003.16.295.39.525.69.69.402.224.796.374 1.18.444v2.977c-.365-.038-.684-.225-.947-.558-.182-.234-.314-.605-.384-1.106l-.942.178c.033.483.16.895.37 1.233.211.337.464.581.76.731.29.15.675.253 1.139.314v.933h.553v-.947c.656-.033 1.19-.267 1.598-.698Zm-2.147-3.961c-.426-.127-.726-.3-.904-.516a1.216 1.216 0 0 1-.268-.801c0-.324.104-.6.315-.835.21-.234.496-.38.857-.436v2.588Zm1.449 3.403a1.4 1.4 0 0 1-.9.473v-2.845c.501.164.839.347 1.008.553.168.206.253.478.253.82-.005.394-.122.732-.361.999Z" fill="#000"/></svg>