<svg viewBox="0 0 24 28" fill="none" xmlns="http://www.w3.org/2000/svg"><g clip-path="url(#a)"><path d="M18 9.556c0-1.769-.632-3.464-1.757-4.714C15.117 3.592 13.59 2.889 12 2.889c-1.591 0-3.117.702-4.243 1.953C6.632 6.092 6 7.787 6 9.556c0 7.777-3 10-3 10h18s-3-2.223-3-10ZM13.73 24a2.124 2.124 0 0 1-.732.81 1.848 1.848 0 0 1-.998.297 1.85 1.85 0 0 1-.998-.296A2.124 2.124 0 0 1 10.27 24" stroke="#565656" stroke-width="2" stroke-linecap="round" stroke-linejoin="round"/><ellipse cx="19" cy="6.222" rx="5" ry="5.556" fill="#EC0C0C"/></g><defs><clipPath id="a"><path fill="#fff" transform="translate(0 .667)" d="M0 0h24v26.667H0z"/></clipPath></defs></svg>