<svg viewBox="0 0 24 25" fill="none" xmlns="http://www.w3.org/2000/svg"><path d="M18.717 18.362a3.502 3.502 0 0 1-2.492-1.03l-3.6-3.602a.684.684 0 0 0-.947 0l-3.612 3.613a3.504 3.504 0 0 1-2.493 1.032h-.705l4.562 4.563a3.65 3.65 0 0 0 5.157 0l4.571-4.573-.441-.003ZM5.574 5.628A3.503 3.503 0 0 1 8.066 6.66l3.613 3.614a.67.67 0 0 0 .946 0l3.6-3.6a3.497 3.497 0 0 1 2.492-1.033h.433l-4.57-4.573a3.645 3.645 0 0 0-5.156 0l-4.555 4.56h.706Z" fill="#32BCAD"/><path d="M22.932 9.423 20.169 6.66a.532.532 0 0 1-.196.04h-1.256a2.48 2.48 0 0 0-1.743.723l-3.6 3.598a1.73 1.73 0 0 1-2.443 0L7.317 7.409a2.48 2.48 0 0 0-1.743-.723H4.032a.541.541 0 0 1-.186-.038l-2.78 2.775a3.65 3.65 0 0 0 0 5.158l2.774 2.774a.52.52 0 0 1 .186-.037h1.548a2.48 2.48 0 0 0 1.743-.724l3.613-3.613c.653-.652 1.791-.652 2.444 0l3.6 3.6a2.48 2.48 0 0 0 1.743.722h1.256c.068 0 .134.014.196.04l2.763-2.763a3.645 3.645 0 0 0 0-5.157" fill="#32BCAD"/></svg>